<svg width="20" height="20" viewBox="0 0 20 20" fill="none" xmlns="http://www.w3.org/2000/svg">
<circle cx="13.5" cy="15.5" r="2.25" fill="#FF0055" stroke="#424242" stroke-width="0.5"/>
<path fill-rule="evenodd" clip-rule="evenodd" d="M4 5.8C4 4.2536 5.15127 3 6.57143 3H15.1429C15.4675 3 15.7643 3.19974 15.9095 3.51593C16.0547 3.83213 16.0234 4.21052 15.8286 4.49333L13.6429 7.66667L15.8286 10.84C16.0234 11.1228 16.0547 11.5012 15.9095 11.8174C15.7643 12.1336 15.4675 12.3333 15.1429 12.3333H6.57143C6.09804 12.3333 5.71429 12.7512 5.71429 13.2667V16.0667C5.71429 16.5821 5.33053 17 4.85714 17C4.38376 17 4 16.5821 4 16.0667V5.8Z" fill="#424242"/>
</svg>