<svg width="18" height="18" viewBox="0 0 18 18" fill="none" xmlns="http://www.w3.org/2000/svg">
<path fill-rule="evenodd" clip-rule="evenodd" d="M6 10.052C6 7.81416 7.81416 6 10.052 6C12.2899 6 14.1041 7.81416 14.1041 10.052C14.1041 10.995 13.7818 11.8631 13.2415 12.5516L16.8571 16.1672C17.0476 16.3577 17.0476 16.6666 16.8571 16.8571C16.6666 17.0476 16.3577 17.0476 16.1672 16.8571L12.5516 13.2415C11.8631 13.7818 10.995 14.1041 10.052 14.1041C7.81416 14.1041 6 12.2899 6 10.052ZM10.052 6.97563C8.35299 6.97563 6.97563 8.35299 6.97563 10.052C6.97563 11.7511 8.35299 13.1284 10.052 13.1284C11.7511 13.1284 13.1284 11.7511 13.1284 10.052C13.1284 8.35299 11.7511 6.97563 10.052 6.97563Z" fill="#424242"/>
<path fill-rule="evenodd" clip-rule="evenodd" d="M13 1.75H1V1H13V1.75Z" fill="#424242"/>
<path fill-rule="evenodd" clip-rule="evenodd" d="M10 3.75H1V3H10V3.75Z" fill="#424242"/>
<path fill-rule="evenodd" clip-rule="evenodd" d="M6.25 5.75H1V5H6.25V5.75Z" fill="#424242"/>
<path fill-rule="evenodd" clip-rule="evenodd" d="M4 7.75H1V7H4V7.75Z" fill="#424242"/>
<path fill-rule="evenodd" clip-rule="evenodd" d="M2.5 9.75H1V9H2.5V9.75Z" fill="#424242"/>
</svg>