<svg id="Layer_2" xmlns="http://www.w3.org/2000/svg" viewBox="0 0 800 875.7369" width="24" height="24">
  <g id="Components">
    <path id="_2cce3bc9-c204-4c27-9316-02e124d57e2e_5" d="M283.0238,784.2909c7.8271-3.1628,18.0558-7.2954,25.6809-10.1463,5.6776-2.2933,12.1689,.0921,15.0094,5.516,15.293,27.3843,44.3565,44.7549,76.2847,44.7549s60.9918-17.3706,76.0997-44.8519c2.8905-5.52,9.4958-7.9491,15.2744-5.617,7.5451,3.0489,17.7738,7.1814,25.5443,10.4841,3.082,1.2453,5.5079,3.7156,6.6958,6.8202,1.1879,3.1039,1.0319,6.5625-.4307,9.5475-23.6461,45.7109-71.0047,74.9385-123.1835,74.9385s-99.5374-29.2276-123.3249-74.869c-1.482-3.0238-1.6404-6.5277-.4356-9.672,1.2041-3.1443,3.6622-5.6461,6.7855-6.9051Zm336.1726-314.4716c0-31.9621-25.6001-57.5323-57.6002-57.5323s-57.5994,25.5702-57.5994,57.5323,25.5993,57.5316,57.5994,57.5316,57.6002-25.5694,57.6002-57.5316ZM400.0012,51.9276c-.265-.0081-.5285-.0162-.7952-.0162-16.0001,0-28.8001,12.7839-28.8001,28.7678s12.8,28.7662,28.8001,28.7662c.2667,0,.5301-.0032,.7952-.0105,.265,.0073,.5285,.0105,.7952,.0105,16.0001,0,28.8001-12.7847,28.8001-28.7662s-12.8-28.7678-28.8001-28.7678c-.2667,0-.5301,.0081-.7952,.0162ZM180.8036,469.0201c0,31.9621,25.6001,57.5324,57.6002,57.5324s57.5994-25.5702,57.5994-57.5324-25.5993-57.5315-57.5994-57.5315-57.6002,25.5694-57.6002,57.5315Zm252.7929-185.3809H236.0038c-95.1996,0-174.3999,71.9154-183.9999,166.2035-10.4,102.2792,64.0003,193.3713,166.3998,203.7592-56.0002-44.7469-88.7995-112.6671-88.7995-184.5818,0-59.9291,48.7994-108.6711,108.7996-108.6711s108.7996,48.742,108.7996,108.6711-48.7994,108.672-108.7996,108.672c-8,0-16.0001-.7992-24.0001-2.3976,34.4001,49.5412,91.1995,79.9058,151.9998,79.9058h197.5927c95.1996,0,174.3999-71.9154,184-166.2035,10.4-102.2792-64.0002-193.3713-166.3999-203.7592,56.0002,44.7468,88.7995,112.6663,88.7995,184.5817,0,59.9291-48.7993,108.6712-108.7996,108.6712s-108.7996-48.742-108.7996-108.6712,48.8002-108.6719,108.7996-108.6719c8,0,16.0001,.7992,24.0001,2.3976-34.4002-49.5412-91.1996-79.9058-151.9998-79.9058Zm129.5997,422.7006H236.0038C105.6041,705.5406-.7955,600.0655,.0045,469.8193,.0045,338.774,105.6041,232.4996,236.8038,232.4996h136.8022v-76.709c-41.6002-14.3831-64.0003-59.9291-50.4002-101.4792C334.767,20.9537,366.435-.0484,400.0012,0c33.5662-.0485,65.2342,20.9536,76.7954,54.3113,13.6001,41.5501-8.8,87.0961-50.4002,101.4792v76.709h137.5997c130.3997,.7992,236.8001,106.2744,235.9993,236.5205,0,131.0454-105.5996,237.3197-236.7993,237.3197Z" style="fill:#fff; fill-rule:evenodd;"/>
  </g>
</svg>
